<?xml version="1.0" encoding="UTF-8" standalone="no"?>
<svg
   xmlns:dc="http://purl.org/dc/elements/1.1/"
   xmlns:cc="http://creativecommons.org/ns#"
   xmlns:rdf="http://www.w3.org/1999/02/22-rdf-syntax-ns#"
   xmlns:svg="http://www.w3.org/2000/svg"
   xmlns="http://www.w3.org/2000/svg"
   xmlns:sodipodi="http://sodipodi.sourceforge.net/DTD/sodipodi-0.dtd"
   xmlns:inkscape="http://www.inkscape.org/namespaces/inkscape"
   width="446.61038mm"
   height="446.61038mm"
   viewBox="0 0 446.61038 446.61038"
   version="1.1"
   id="svg8"
   inkscape:version="0.92+devel (b8dbb47, 2018-12-26)"
   sodipodi:docname="SH.svg">
  <defs
     id="defs2" />
  <sodipodi:namedview
     id="base"
     pagecolor="#ffffff"
     bordercolor="#666666"
     borderopacity="1.0"
     inkscape:pageopacity="0.0"
     inkscape:pageshadow="2"
     inkscape:zoom="0.48638125"
     inkscape:cx="472.88007"
     inkscape:cy="843.98812"
     inkscape:document-units="mm"
     inkscape:current-layer="layer1"
     inkscape:document-rotation="0"
     showgrid="false"
     fit-margin-top="0"
     fit-margin-left="0"
     fit-margin-right="0"
     fit-margin-bottom="0"
     inkscape:window-width="1920"
     inkscape:window-height="1027"
     inkscape:window-x="-8"
     inkscape:window-y="-8"
     inkscape:window-maximized="1" />
  <metadata
     id="metadata5">
    <rdf:RDF>
      <cc:Work
         rdf:about="">
        <dc:format>image/svg+xml</dc:format>
        <dc:type
           rdf:resource="http://purl.org/dc/dcmitype/StillImage" />
        <dc:title />
      </cc:Work>
    </rdf:RDF>
  </metadata>
  <g
     inkscape:label="Layer 1"
     inkscape:groupmode="layer"
     id="layer1"
     transform="translate(-34.625407,36.278402)">
    <circle
       style="fill:#ffffff;fill-opacity:1;fill-rule:nonzero;stroke:#000000;stroke-width:13.2292;stroke-miterlimit:4;stroke-dasharray:none;stroke-opacity:1"
       id="path905"
       cx="257.9306"
       cy="187.02679"
       r="216.69061" />
    <g
       id="g909"
       transform="translate(2.8026523,3.9039609)">
      <path
         sodipodi:nodetypes="ccscsssssccsssssscssssssssssssccssscccc"
         inkscape:connector-curvature="0"
         id="path70"
         d="m 88.196223,241.80371 c 8.801333,5.0283 8.311174,7.50171 17.601427,8.91557 -11.223457,6.74705 -18.641949,-25.29632 0.55977,-25.40391 17.6789,-0.0991 18.00773,26.78528 2.52679,25.2059 21.84421,3.6143 68.68487,-114.26495 76.85085,-137.19049 1.8843,-5.29005 20.92068,-63.285626 -7.26492,-87.242632 -14.32753,-12.17802 -30.66528,6.679679 -35.80702,32.54219 -8.66389,43.578602 67.4949,63.277722 69.4811,107.664802 1.43781,32.13176 -26.6503,51.62872 -58.77163,53.28319 -25.49704,1.31328 -45.14067,-25.23043 -45.82381,-46.29104 4.06133,-6.44328 10.12389,-9.8847 17.07639,-11.99121 13.45045,6.26031 23.66226,10.75016 33.56847,15.6583 37.8824,18.76928 183.7504,73.33077 228.1044,33.39394 9.2575,-8.33557 7.83737,-17.26785 6.54695,-43.87357 -0.27637,-5.6981 2.02721,-38.79857 -15.42095,-28.549 -11.75248,6.90375 -5.87018,36.1012 -4.29494,72.00945 0.4683,10.67528 2.77789,79.64087 7.60559,91.70488 16.14712,40.35028 31.39591,11.01989 33.35895,10.5768 -3.84464,9.30783 -9.20723,11.74443 -15.4438,15.60198 -14.93994,9.24091 -36.99811,-3.46017 -39.37504,-58.47235 -2.31267,-53.5249 -8.79452,-79.65449 -4.06818,-119.94183 3.17231,-27.04058 29.88331,-39.43963 41.85831,-28.54562 12.56729,11.43284 13.57828,67.8266 7.59072,80.59029 -30.39712,64.79753 -161.24582,14.22613 -220.23987,-3.30719 -19.66106,-5.84336 -56.94148,-25.17911 -61.18704,-21.57555 -4.32189,3.66834 10.22995,42.52962 47.1984,28.94456 21.08103,-7.7468 25.34012,-8.77807 24.99709,-34.05801 -0.59307,-43.70714 -73.08933,-67.60075 -65.8118,-110.701834 5.31234,-31.462261 35.15763,-68.0623631 59.13849,-47.014482 37.34734,32.779579 -3.17114,123.039336 -24.29654,168.907856 -17.22661,37.40331 -24.89983,67.77537 -57.19628,70.9865 l -0.28328,-3.49374 c 2.36977,-1.44519 4.22547,-0.0484 7.47377,-4.32471 3.26464,-4.29785 0.73956,-7.37008 -2.24877,-10.82539 -3.87932,-4.48552 -11.10427,-6.19404 -12.13648,1.87123 -0.889919,6.95347 0.93037,11.90775 8.75,13.39376 l -1.00474,3.28436 c -15.812728,1.72403 -17.021459,-2.1821 -27.965851,-8.55241 z"
         style="fill:#000000;fill-opacity:1;fill-rule:nonzero;stroke:none;stroke-width:0.264583px;stroke-linecap:butt;stroke-linejoin:miter;stroke-opacity:1" />
      <path
         sodipodi:nodetypes="csssscccccsssssscc"
         inkscape:connector-curvature="0"
         id="path903"
         d="m 267.17138,155.17179 c 0,0 2.72926,10.9425 -2.64868,14.84271 -10.60257,7.68926 -11.95206,-3.0401 -13.491,-9.83493 -2.25609,-9.96129 0.96338,-28.37502 8.84728,-32.5905 5.05176,-2.70116 45.50841,-24.03158 26.52784,82.93566 -11.76923,66.32688 -15.04216,82.6262 -20.31231,110.21332 -15.15559,-2.18303 -16.3838,-13.81228 -16.3838,-13.81228 l -14.85383,7.45994 c 6.29771,10.2193 10.15838,19.72083 30.6464,20.40526 l 12.9759,-9.66756 c 0,0 9.41687,-19.77463 13.61383,-51.08835 6.19773,-46.24157 18.44118,-100.43953 15.46151,-129.94583 -2.30932,-22.86813 -14.34714,-26.51828 -29.32731,-29.22454 -16.49368,-2.97968 -32.60749,12.53058 -36.72685,23.65562 -3.94635,10.65781 -7.84797,35.91092 9.73637,43.25325 6.20566,2.59117 18.70779,-2.22617 23.42549,-10.76035 5.17888,-9.36844 5.28117,-23.30663 3.03059,-22.93153 z"
         style="fill:#000000;fill-opacity:1;stroke:none;stroke-width:0.264583px;stroke-linecap:butt;stroke-linejoin:miter;stroke-opacity:1" />
    </g>
  </g>
</svg>
