<?xml version="1.0" encoding="UTF-8" standalone="no"?>
<svg
   xmlns:dc="http://purl.org/dc/elements/1.1/"
   xmlns:cc="http://creativecommons.org/ns#"
   xmlns:rdf="http://www.w3.org/1999/02/22-rdf-syntax-ns#"
   xmlns:svg="http://www.w3.org/2000/svg"
   xmlns="http://www.w3.org/2000/svg"
   xmlns:sodipodi="http://sodipodi.sourceforge.net/DTD/sodipodi-0.dtd"
   xmlns:inkscape="http://www.inkscape.org/namespaces/inkscape"
   width="202.44922"
   height="127.30078"
   viewBox="0 0 53.564689 33.681665"
   version="1.1"
   id="svg8"
   inkscape:version="1.0beta2 (48b704f, 2019-12-29)"
   sodipodi:docname="chest closed.svg">
  <defs
     id="defs2">
    <inkscape:perspective
       sodipodi:type="inkscape:persp3d"
       inkscape:vp_x="190.57638 : 190.57639 : 0"
       inkscape:vp_y="0 : 999.99997 : 0"
       inkscape:vp_z="118.45456 : 2.9012042e-14 : 0"
       inkscape:persp3d-origin="105 : -164.31834 : 1"
       id="perspective833" />
  </defs>
  <sodipodi:namedview
     id="base"
     pagecolor="#ffffff"
     bordercolor="#666666"
     borderopacity="1.0"
     inkscape:pageopacity="0.0"
     inkscape:pageshadow="2"
     inkscape:zoom="1.0544998"
     inkscape:cx="179.5675"
     inkscape:cy="251.35132"
     inkscape:document-units="mm"
     inkscape:current-layer="layer1"
     inkscape:document-rotation="0"
     showgrid="false"
     inkscape:window-width="1920"
     inkscape:window-height="1027"
     inkscape:window-x="-8"
     inkscape:window-y="-8"
     inkscape:window-maximized="1"
     inkscape:pagecheckerboard="true"
     fit-margin-top="0"
     fit-margin-left="0"
     fit-margin-right="0"
     fit-margin-bottom="0" />
  <metadata
     id="metadata5">
    <rdf:RDF>
      <cc:Work
         rdf:about="">
        <dc:format>image/svg+xml</dc:format>
        <dc:type
           rdf:resource="http://purl.org/dc/dcmitype/StillImage" />
        <dc:title></dc:title>
      </cc:Work>
    </rdf:RDF>
  </metadata>
  <g
     inkscape:label="Layer 1"
     inkscape:groupmode="layer"
     id="layer1"
     transform="translate(-64.969678,-168.95717)">
    <path
       id="path1020"
       style="fill:#000000;fill-opacity:1;stroke:none;stroke-width:0.264583px;stroke-linecap:butt;stroke-linejoin:miter;stroke-opacity:1"
       d="m 106.55628,172.1611 c -0.0854,-0.005 -0.18177,0.0103 -0.30747,0.0403 -0.33522,0.0799 -0.85802,0.37706 -1.42575,0.94516 -1.96565,1.96693 -4.12698,6.97048 -4.70101,12.96872 l 8.10545,-8.10545 c -0.0668,-3.30593 -0.74874,-5.16942 -1.25212,-5.62498 -0.16511,-0.14943 -0.27678,-0.21511 -0.4191,-0.22376 z m -34.997342,0.0114 c 0.06264,-8e-4 0.04511,-5.3e-4 -0.04082,0.005 h -0.0011 c -0.348877,0.0213 -1.030944,0.35069 -1.779736,1.15446 -0.748789,0.80376 -1.549567,2.02318 -2.261878,3.54862 -1.315048,2.81623 -2.297861,6.69116 -2.447396,10.97555 h 32.750456 c 0.208872,-6.86126 2.420766,-12.64729 5.056026,-15.67604 H 71.677278 c -0.02172,0 -0.04344,-0.001 -0.06511,-0.003 -0.07384,-0.005 -0.08995,-0.004 -0.05323,-0.005 z m 36.711452,8.78861 -2.91248,2.91145 -5.480288,5.47925 v 5.3e-4 11.78843 l 8.392768,-8.3907 z m -43.300712,9.01185 v 12.6659 H 97.76044 v -12.6659 z m 12.932542,1.28933 h 3.462837 3.46284 c -2e-6,4.24154 -0.217424,6.88692 -3.46284,6.88692 -3.245413,0 -3.462837,-2.64538 -3.462837,-6.88692 z m 3.462837,1.08159 c -1.309597,0 -1.401334,1.82148 -0.630452,2.07119 l -0.582908,1.92443 h 1.21336 1.213364 l -0.582909,-1.92443 c 0.770882,-0.24971 0.679145,-2.07119 -0.630455,-2.07119 z"
       inkscape:connector-curvature="0" />
    <g
       id="g974"
       style="opacity:1"
       transform="translate(1.6063985,2.2579998)">
      <g
         id="g1018" />
    </g>
    <g
       id="g1993"
       transform="translate(1.990056,2.2271338)" />
  </g>
</svg>
