<?xml version="1.0" encoding="UTF-8" standalone="no"?>
<svg
   xmlns:dc="http://purl.org/dc/elements/1.1/"
   xmlns:cc="http://creativecommons.org/ns#"
   xmlns:rdf="http://www.w3.org/1999/02/22-rdf-syntax-ns#"
   xmlns:svg="http://www.w3.org/2000/svg"
   xmlns="http://www.w3.org/2000/svg"
   xmlns:sodipodi="http://sodipodi.sourceforge.net/DTD/sodipodi-0.dtd"
   xmlns:inkscape="http://www.inkscape.org/namespaces/inkscape"
   width="53.56469mm"
   height="33.681664mm"
   viewBox="0 0 53.56469 33.681664"
   version="1.1"
   id="svg8"
   inkscape:version="1.0beta2 (48b704f, 2019-12-29)"
   sodipodi:docname="chest open.svg">
  <defs
     id="defs2">
    <inkscape:perspective
       sodipodi:type="inkscape:persp3d"
       inkscape:vp_x="190.57639 : 190.57639 : 0"
       inkscape:vp_y="0 : 1000 : 0"
       inkscape:vp_z="118.45456 : 2.9012043e-14 : 0"
       inkscape:persp3d-origin="105 : -164.31834 : 1"
       id="perspective833" />
  </defs>
  <sodipodi:namedview
     fit-margin-bottom="0"
     fit-margin-right="0"
     fit-margin-left="0"
     fit-margin-top="0"
     inkscape:pagecheckerboard="true"
     id="base"
     pagecolor="#ffffff"
     bordercolor="#666666"
     borderopacity="1.0"
     inkscape:pageopacity="0.0"
     inkscape:pageshadow="2"
     inkscape:zoom="0.70000001"
     inkscape:cx="-330.26145"
     inkscape:cy="360.23293"
     inkscape:document-units="px"
     inkscape:current-layer="layer1"
     inkscape:document-rotation="0"
     showgrid="false"
     inkscape:window-width="1920"
     inkscape:window-height="1027"
     inkscape:window-x="-8"
     inkscape:window-y="-8"
     inkscape:window-maximized="1" />
  <metadata
     id="metadata5">
    <rdf:RDF>
      <cc:Work
         rdf:about="">
        <dc:format>image/svg+xml</dc:format>
        <dc:type
           rdf:resource="http://purl.org/dc/dcmitype/StillImage" />
        <dc:title></dc:title>
      </cc:Work>
    </rdf:RDF>
  </metadata>
  <g
     transform="translate(-63.363056,-166.69938)"
     inkscape:label="Layer 1"
     inkscape:groupmode="layer"
     id="layer1">
    <path
       inkscape:connector-curvature="0"
       transform="scale(0.26458333)"
       d="m 318.84375,630.04492 c -0.35303,11.57047 -2.21411,22.32537 -5.05273,31.71289 h 91.6875 l 31.71484,-31.71289 z m -8.85547,6.57617 -25.13867,25.13672 h 19.99219 c 2.39699,-7.428 4.26843,-15.96154 5.14648,-25.13672 z m 131.94336,0 -30.63476,30.63477 c 0.25249,12.49489 2.82988,19.53798 4.73242,21.25976 0.99847,0.90365 1.47916,0.99745 2.74609,0.69532 1.26697,-0.30218 3.24292,-1.42703 5.38867,-3.57422 7.42923,-7.43407 15.59806,-26.34508 17.76758,-49.01563 z m -162.73437,33.13868 v 31.71093 h 86.56835 l 31.71094,-31.71093 z m -8.00196,5.65429 -26.05664,26.05664 h 26.05664 z m 131.94531,0 -31.7207,31.71289 v 44.55664 l 31.7207,-31.71289 z m -163.6582,34.0586 v 47.87304 h 123.93555 v -47.87304 z m 48.87891,4.87304 h 13.08789 13.08789 c -10e-6,16.03102 -0.82175,26.0293 -13.08789,26.0293 -12.26613,0 -13.08789,-9.99828 -13.08789,-26.0293 z m 13.08789,4.08789 c -4.94966,0 -5.29638,6.88434 -2.38281,7.82813 l -2.20313,7.27344 h 4.58594 4.58594 l -2.20313,-7.27344 c 2.91357,-0.94379 2.56686,-7.82813 -2.38281,-7.82813 z"
       style="fill:#000000;fill-opacity:1;stroke:none;stroke-width:0.999999px;stroke-linecap:butt;stroke-linejoin:miter;stroke-opacity:1"
       id="path2643" />
    <g
       style="opacity:1"
       id="g2632" />
    <g
       style="opacity:1"
       id="g2626" />
    <g
       style="opacity:1"
       id="g2620" />
    <g
       style="opacity:1"
       id="g2614" />
    <g
       style="opacity:1"
       id="g2608" />
    <g
       style="opacity:1"
       id="g2602" />
    <g
       style="opacity:1"
       id="g2596" />
    <g
       id="g974"
       style="opacity:1"
       transform="translate(-0.34600727,0.93992386)">
      <g
         id="g1018" />
    </g>
    <g
       id="g1993"
       transform="translate(0.03764873,0.90905386)" />
  </g>
</svg>
