<?xml version="1.0" standalone="no"?>
<!DOCTYPE svg PUBLIC "-//W3C//DTD SVG 20010904//EN"
 "http://www.w3.org/TR/2001/REC-SVG-20010904/DTD/svg10.dtd">
<svg version="1.0" xmlns="http://www.w3.org/2000/svg"
 width="1140.000000pt" height="1140.000000pt" viewBox="0 0 1140.000000 1140.000000"
 preserveAspectRatio="xMidYMid meet">
<metadata>
Created by potrace 1.14, written by Peter Selinger 2001-2017
</metadata>
<g transform="translate(0.000000,1140.000000) scale(0.100000,-0.100000)"
fill="#000000" stroke="none">
<path d="M5675 11386 c-11 -7 -43 -27 -72 -42 -28 -16 -107 -61 -175 -100 -67
-40 -211 -123 -318 -185 -107 -61 -222 -128 -255 -147 -99 -57 -117 -67 -180
-103 -33 -18 -61 -37 -63 -41 -2 -4 -8 -8 -12 -8 -5 0 -35 -15 -67 -34 -32
-19 -62 -35 -68 -36 -5 -1 -24 -12 -42 -26 -17 -13 -34 -24 -37 -24 -3 0 -27
-13 -54 -29 -26 -15 -68 -40 -93 -53 -24 -14 -143 -83 -264 -153 -121 -70
-236 -136 -255 -147 -19 -11 -48 -27 -65 -37 -158 -93 -278 -161 -285 -161 -6
0 -10 -4 -10 -10 0 -5 -4 -10 -10 -10 -5 0 -33 -14 -62 -31 -47 -28 -426 -247
-673 -389 l-30 -17 0 -1803 0 -1803 40 -24 c22 -13 58 -33 80 -45 22 -12 49
-28 60 -35 11 -7 28 -16 38 -19 9 -3 17 -10 17 -15 0 -5 4 -9 10 -9 8 0 313
-172 440 -249 19 -11 44 -25 55 -30 11 -5 37 -21 58 -35 21 -14 40 -26 43 -26
5 0 266 -150 459 -263 39 -23 84 -49 100 -58 17 -9 54 -31 83 -48 29 -17 57
-31 62 -31 6 0 10 -4 10 -10 0 -5 4 -10 9 -10 9 0 99 -49 161 -88 14 -9 26
-15 28 -13 1 1 14 -7 29 -19 14 -11 31 -20 39 -20 7 0 14 -4 16 -8 2 -5 28
-22 58 -39 30 -17 110 -62 177 -102 68 -39 127 -71 133 -71 6 0 13 -7 16 -15
4 -8 12 -15 19 -15 7 0 42 -17 76 -38 35 -22 170 -100 299 -174 129 -74 294
-169 365 -210 l130 -75 3 596 c2 559 1 597 -15 609 -10 7 -85 52 -168 99 -82
47 -273 157 -423 245 -151 87 -278 158 -283 158 -5 0 -9 5 -9 10 0 6 -5 10
-11 10 -6 0 -45 20 -86 45 -40 25 -76 45 -79 45 -3 0 -18 8 -32 19 -15 10 -47
29 -72 43 -25 14 -87 49 -138 79 -51 30 -119 69 -150 87 -31 18 -65 35 -74 39
-10 3 -18 9 -18 14 0 5 -4 9 -10 9 -5 0 -44 20 -86 45 -41 25 -78 45 -80 45
-2 0 -23 12 -47 27 -23 15 -58 36 -77 46 -19 11 -77 44 -128 74 l-93 54 0 187
c0 103 0 196 0 207 0 11 0 121 0 245 0 124 -1 230 -1 235 0 6 1 15 2 20 1 6 2
346 1 757 l-1 747 -87 51 c-49 28 -95 55 -103 60 -25 15 -231 133 -283 162
l-48 26 93 55 c51 30 107 62 123 71 17 9 44 25 60 35 17 10 50 29 75 43 95 53
120 68 159 92 22 15 43 26 45 26 3 0 50 27 105 60 55 33 105 60 111 60 5 0 10
5 10 10 0 6 4 10 10 10 5 0 31 13 58 29 26 15 68 39 93 53 83 47 364 210 386
224 13 8 24 13 25 12 2 -2 17 7 33 18 17 12 50 32 75 46 25 14 86 49 135 78
50 29 108 62 131 75 79 44 89 50 94 55 3 3 19 12 35 21 17 9 71 40 120 69 50
28 108 62 130 75 22 12 56 32 75 43 19 12 49 28 65 37 17 8 44 23 60 33 17 11
90 53 163 96 l132 77 86 -51 c46 -27 87 -50 90 -50 3 0 18 -8 32 -19 15 -10
47 -29 72 -43 25 -14 85 -48 133 -77 49 -28 93 -51 98 -51 5 0 9 -4 9 -10 0
-5 4 -10 10 -10 5 0 33 -14 62 -31 54 -32 89 -52 156 -90 20 -12 73 -42 117
-68 44 -25 88 -50 97 -56 10 -5 58 -34 108 -62 50 -29 93 -53 96 -53 3 0 25
-13 49 -30 24 -16 46 -30 49 -30 3 0 30 -16 60 -35 30 -19 57 -35 59 -35 3 0
92 -51 198 -113 107 -61 215 -123 242 -137 26 -14 47 -28 47 -32 0 -5 4 -8 10
-8 7 0 320 -178 653 -372 l69 -40 -49 -25 c-26 -14 -80 -46 -120 -69 -39 -24
-76 -44 -82 -44 -6 0 -11 -4 -11 -10 0 -5 -4 -10 -10 -10 -5 0 -42 -19 -82
-42 -40 -24 -84 -49 -98 -56 -60 -31 -69 -44 -70 -102 0 -30 -1 -86 -1 -125
-1 -38 -1 -77 -1 -85 1 -8 1 -116 1 -240 -1 -124 -1 -232 0 -240 0 -8 0 -116
0 -240 -1 -124 -1 -232 0 -240 0 -8 0 -116 0 -240 -1 -124 -1 -232 0 -240 0
-8 0 -116 0 -240 -1 -124 -1 -232 0 -240 0 -8 0 -59 0 -112 0 -91 2 -98 23
-109 13 -7 25 -15 28 -18 3 -3 21 -14 40 -25 89 -48 146 -80 155 -86 6 -4 26
-17 45 -28 19 -10 94 -53 167 -95 72 -42 147 -85 165 -96 18 -10 62 -35 98
-56 36 -21 81 -46 100 -57 79 -45 176 -102 198 -116 l22 -14 0 1800 0 1800
-37 23 c-21 13 -49 29 -63 37 -30 16 -295 169 -327 189 -13 7 -26 14 -30 15
-5 1 -14 8 -21 15 -7 7 -20 13 -28 13 -8 0 -14 5 -14 10 0 6 -4 10 -10 10 -5
0 -31 13 -58 29 -27 16 -76 44 -108 62 -32 17 -65 38 -72 46 -7 7 -17 13 -22
13 -5 0 -102 54 -215 120 -114 66 -209 120 -213 120 -3 0 -13 6 -21 14 -9 8
-38 26 -66 40 -27 15 -57 31 -65 36 -60 38 -172 100 -180 100 -6 0 -10 5 -10
10 0 6 -4 10 -9 10 -8 0 -39 18 -264 149 -49 28 -92 51 -97 51 -5 0 -10 3 -12
8 -3 7 -50 35 -105 61 -18 8 -33 19 -33 23 0 4 -4 8 -9 8 -8 0 -223 121 -281
158 -14 9 -27 17 -30 17 -3 0 -16 8 -30 17 -55 35 -152 88 -161 88 -5 0 -9 5
-9 10 0 6 -4 10 -10 10 -5 0 -44 20 -86 45 -41 25 -78 45 -81 45 -4 0 -20 10
-37 23 -17 12 -42 28 -56 35 -14 6 -32 16 -40 21 -30 19 -209 121 -212 121 -2
0 -12 -6 -23 -14z"/>
<path d="M5615 10151 c-44 -26 -103 -61 -132 -77 -29 -16 -157 -89 -285 -163
-128 -74 -242 -139 -253 -145 -11 -6 -22 -13 -25 -17 -3 -3 -21 -13 -40 -23
-19 -9 -55 -29 -80 -45 -25 -15 -70 -41 -100 -57 -30 -17 -74 -43 -97 -57 -24
-15 -47 -27 -52 -27 -5 0 -11 -3 -13 -7 -3 -8 -69 -46 -115 -68 -13 -5 -23
-13 -23 -17 0 -5 -4 -8 -9 -8 -5 0 -105 -55 -223 -123 -117 -68 -240 -139
-273 -157 -33 -19 -62 -36 -65 -39 -3 -4 -23 -15 -45 -26 -22 -11 -41 -23 -43
-27 -2 -5 -8 -8 -12 -8 -12 0 -100 -53 -100 -60 0 -6 155 -100 165 -100 4 0
19 -8 33 -19 15 -10 47 -29 72 -43 25 -14 85 -48 133 -77 49 -28 93 -51 98
-51 5 0 9 -4 9 -10 0 -5 4 -10 9 -10 5 0 64 -32 132 -71 156 -90 183 -106 239
-137 25 -13 50 -28 55 -32 6 -4 27 -17 48 -29 36 -20 38 -20 70 -2 64 37 565
326 689 397 70 41 132 74 137 74 5 0 11 3 13 8 2 4 40 29 86 55 l83 48 58 -36
c32 -19 64 -35 70 -35 6 0 11 -4 11 -9 0 -5 8 -11 18 -14 9 -4 37 -18 62 -33
25 -15 60 -35 78 -45 17 -11 47 -27 65 -38 17 -10 56 -32 85 -50 29 -17 57
-31 62 -31 6 0 10 -4 10 -9 0 -5 8 -11 18 -14 18 -6 92 -48 160 -91 23 -14 44
-26 47 -26 2 0 34 -18 70 -40 36 -22 68 -40 70 -40 3 0 24 -11 46 -26 104 -65
105 -66 142 -45 59 34 489 282 654 377 90 52 167 94 173 94 5 0 10 4 10 8 0 5
18 17 40 27 22 10 40 22 40 27 0 4 8 8 18 8 9 1 28 10 41 21 29 24 40 14 -114
103 -89 51 -309 178 -530 306 -226 131 -278 160 -286 160 -5 0 -9 5 -9 10 0 6
-4 10 -9 10 -5 0 -86 44 -179 98 -93 54 -175 102 -183 106 -8 4 -23 12 -34 19
-11 7 -94 54 -185 106 -91 52 -173 101 -184 110 -10 9 -21 16 -25 15 -3 -1
-23 10 -43 22 -21 13 -39 24 -42 24 -2 0 -34 18 -70 40 -36 22 -70 40 -75 40
-5 0 -11 3 -13 8 -3 7 -62 42 -70 42 -1 -1 -39 -22 -83 -49z"/>
<path d="M5702 6600 l3 -602 90 -52 c50 -29 101 -59 115 -67 14 -8 27 -16 30
-19 3 -3 16 -11 30 -17 14 -7 48 -25 75 -41 228 -133 355 -206 403 -233 112
-63 514 -296 557 -323 27 -17 52 -31 55 -31 3 0 16 -8 30 -16 64 -40 152 -89
161 -89 5 0 9 -4 9 -10 0 -5 4 -10 9 -10 5 0 48 -22 96 -50 48 -27 91 -50 96
-50 5 0 9 -4 9 -10 0 -5 4 -10 9 -10 7 0 62 -30 111 -60 8 -5 54 -32 103 -60
l87 -51 0 -42 c0 -23 1 -49 1 -57 1 -8 1 -116 0 -240 0 -124 0 -232 0 -240 1
-8 1 -116 0 -240 0 -124 0 -232 1 -240 0 -8 0 -44 -1 -80 0 -36 0 -72 0 -80 1
-8 1 -116 0 -240 0 -124 0 -232 0 -240 1 -8 0 -116 -1 -240 -1 -125 -1 -230 1
-235 5 -30 -2 -215 -9 -215 -5 0 -119 64 -253 142 -134 77 -257 148 -274 156
-16 9 -32 18 -35 21 -3 4 -16 12 -30 18 -31 15 -131 72 -145 83 -5 4 -30 19
-55 32 -25 14 -89 51 -142 82 l-98 56 -32 -20 c-18 -10 -44 -25 -58 -33 -14
-7 -43 -24 -65 -37 -22 -12 -60 -34 -85 -48 -25 -14 -76 -44 -115 -67 -38 -22
-77 -44 -85 -48 -8 -4 -30 -16 -48 -27 -18 -11 -106 -62 -195 -114 -89 -51
-185 -107 -213 -123 -27 -17 -71 -42 -96 -56 -51 -28 -40 -31 -163 40 -38 22
-176 101 -305 175 -130 75 -282 163 -339 197 -56 33 -107 61 -111 61 -5 0 -15
6 -22 13 -7 7 -24 18 -38 24 -14 6 -43 23 -66 37 -36 22 -42 23 -65 11 -13 -8
-34 -19 -47 -24 -12 -6 -47 -26 -77 -46 -30 -19 -58 -35 -63 -36 -4 -1 -16 -7
-27 -14 -11 -7 -92 -54 -180 -105 -172 -100 -173 -100 -315 -181 -52 -30 -103
-58 -112 -64 -103 -61 -182 -105 -189 -105 -7 0 -9 93 -10 425 0 11 0 121 0
245 0 124 0 232 0 240 0 8 0 343 0 745 0 401 -3 732 -7 736 -13 14 -493 289
-502 289 -6 0 -10 5 -10 10 0 6 -4 10 -9 10 -9 0 -97 49 -161 89 -14 8 -28 16
-32 16 -4 0 -16 8 -28 17 -11 10 -34 24 -52 33 -18 8 -40 19 -48 25 -8 5 -53
32 -100 59 l-85 49 -3 -1796 c-1 -988 1 -1799 5 -1803 7 -7 121 -74 230 -135
23 -13 92 -53 153 -89 61 -36 115 -65 121 -65 5 0 9 -4 9 -10 0 -5 5 -10 10
-10 6 0 40 -18 76 -40 36 -22 67 -40 69 -40 2 0 81 -45 175 -100 95 -55 176
-100 181 -100 5 0 9 -4 9 -9 0 -5 12 -14 28 -20 15 -6 41 -19 57 -29 17 -10
53 -31 80 -46 28 -16 55 -32 60 -36 6 -4 30 -19 55 -32 95 -53 405 -232 410
-238 3 -3 19 -12 35 -20 17 -8 78 -43 137 -78 59 -34 111 -62 117 -62 6 0 11
-4 11 -9 0 -5 8 -12 18 -15 9 -3 26 -12 37 -19 11 -6 52 -30 90 -52 39 -22 77
-44 86 -50 9 -5 43 -25 75 -42 32 -18 77 -44 99 -57 35 -20 234 -136 305 -177
14 -8 33 -21 44 -29 10 -8 19 -13 20 -11 0 3 12 -2 26 -11 14 -8 59 -34 100
-58 41 -24 86 -50 100 -59 14 -9 41 -24 60 -33 33 -16 37 -16 65 2 81 49 208
120 216 120 5 0 9 5 9 10 0 6 4 10 10 10 5 0 42 19 82 43 40 24 80 46 88 50 8
4 24 13 35 20 11 7 63 37 115 66 154 89 364 211 380 221 8 6 22 13 30 17 8 4
32 17 53 31 22 13 60 35 85 49 26 15 65 37 87 50 22 13 48 26 58 30 9 3 17 9
17 14 0 5 6 9 13 9 7 0 28 11 47 23 19 13 60 37 90 54 30 17 143 81 250 143
263 152 261 151 295 168 17 9 32 18 35 22 5 7 84 52 135 78 17 8 41 23 55 32
14 9 57 34 95 55 39 21 72 41 75 44 3 3 19 13 35 21 17 8 53 28 80 45 28 17
57 34 65 38 8 3 134 75 280 160 l265 154 0 1803 0 1803 -135 79 c-74 43 -144
83 -155 89 -11 5 -35 19 -54 30 -40 24 -304 176 -341 196 -14 8 -38 23 -55 33
-16 10 -41 25 -55 33 -34 18 -487 280 -530 306 -19 11 -41 24 -48 27 -12 6
-225 129 -342 197 -19 11 -59 34 -89 51 -29 17 -79 46 -110 64 -31 18 -71 39
-88 47 -18 9 -33 20 -33 25 0 6 -6 10 -14 10 -8 0 -51 23 -95 50 -44 28 -85
50 -89 50 -5 0 -20 8 -33 18 -13 11 -51 34 -84 52 -90 50 -106 58 -160 91 -27
17 -58 33 -67 36 -10 3 -18 9 -18 14 0 5 -4 9 -9 9 -8 0 -125 65 -181 100 -21
13 -108 63 -150 86 -19 10 -37 21 -40 24 -3 3 -16 11 -30 17 -14 7 -44 24 -68
38 l-42 26 2 -601z m-2022 -4235 c33 -20 99 -58 180 -101 19 -11 37 -22 38
-26 2 -5 8 -8 14 -8 5 0 29 -13 53 -30 24 -16 46 -30 49 -30 3 0 103 -56 222
-125 119 -69 242 -140 273 -157 31 -17 84 -49 119 -70 34 -21 65 -38 68 -38 3
0 18 -8 32 -19 15 -10 50 -31 77 -45 28 -15 64 -35 80 -45 17 -10 46 -27 65
-38 19 -11 94 -54 165 -95 72 -42 146 -85 165 -96 19 -11 69 -39 110 -62 41
-24 87 -51 102 -61 14 -11 33 -19 42 -19 9 0 16 -4 16 -9 0 -8 19 -19 124 -73
21 -11 41 -16 45 -11 3 4 17 14 31 22 14 8 62 36 108 63 46 26 88 48 93 48 5
0 9 4 9 9 0 5 8 11 18 14 9 3 44 22 77 42 33 19 79 45 103 57 23 12 42 26 42
30 0 4 9 8 19 8 11 0 21 4 23 8 3 7 128 81 153 91 6 2 17 9 25 16 8 7 40 26
70 42 63 34 297 168 320 183 19 12 99 58 175 100 33 18 62 37 63 42 2 4 8 8
13 8 4 0 68 35 141 77 73 42 148 84 166 94 18 10 38 22 45 27 7 5 32 20 57 33
25 13 47 26 50 29 3 3 14 10 25 16 108 59 140 78 143 85 2 5 9 9 16 9 8 0 25
9 40 21 l26 21 38 -20 c86 -45 107 -57 112 -63 3 -3 12 -8 20 -12 8 -3 38 -20
65 -37 28 -16 57 -33 65 -36 8 -4 26 -15 40 -24 22 -15 86 -52 168 -96 23 -12
21 -13 -50 -55 -40 -24 -84 -50 -98 -57 -14 -7 -43 -24 -65 -37 -22 -13 -60
-36 -85 -50 -77 -43 -179 -102 -250 -145 -81 -49 -193 -110 -200 -110 -6 0
-10 -4 -10 -10 0 -5 -4 -10 -10 -10 -5 0 -42 -19 -82 -43 -40 -24 -80 -46 -88
-50 -8 -4 -24 -13 -35 -19 -33 -22 -95 -58 -143 -85 -26 -15 -60 -35 -77 -45
-16 -10 -39 -22 -50 -28 -11 -6 -41 -22 -67 -38 -25 -15 -93 -54 -150 -87 -56
-33 -112 -65 -123 -72 -11 -7 -27 -16 -35 -20 -8 -4 -49 -27 -90 -51 -41 -25
-93 -55 -115 -67 -46 -25 -300 -172 -516 -297 -80 -46 -152 -88 -160 -91 -8
-4 -29 -16 -47 -27 l-34 -21 -74 46 c-41 25 -77 45 -79 45 -3 0 -33 17 -67 38
-35 20 -76 44 -93 52 -16 8 -32 17 -35 21 -9 10 -152 89 -161 89 -5 0 -9 5 -9
10 0 6 -5 10 -10 10 -6 0 -27 11 -48 23 -20 13 -58 35 -83 49 -80 45 -94 53
-99 58 -3 3 -21 13 -40 24 -90 48 -146 80 -155 87 -5 4 -71 42 -145 84 -190
109 -201 116 -235 136 -16 11 -37 22 -45 26 -8 4 -48 26 -88 50 -40 24 -77 43
-82 43 -6 0 -10 5 -10 10 0 6 -4 10 -10 10 -5 0 -44 20 -86 45 -41 25 -78 45
-80 45 -2 0 -23 12 -47 27 -23 15 -55 35 -72 44 -16 9 -50 28 -75 43 -25 15
-53 29 -62 33 -10 3 -18 9 -18 14 0 5 -4 9 -9 9 -5 0 -90 46 -188 103 -98 57
-224 130 -280 162 -57 33 -103 62 -103 65 0 3 35 26 77 51 42 24 102 59 132
76 31 18 63 36 71 40 8 4 55 31 104 60 49 29 92 53 97 53 5 0 9 5 9 11 0 14
35 2 80 -26z"/>
</g>
</svg>
